<?xml version="1.0" standalone="no"?>
<!DOCTYPE svg PUBLIC "-//W3C//DTD SVG 20010904//EN"
 "http://www.w3.org/TR/2001/REC-SVG-20010904/DTD/svg10.dtd">
<svg version="1.0" xmlns="http://www.w3.org/2000/svg"
 width="267.000000pt" height="267.000000pt" viewBox="0 0 267.000000 267.000000"
 preserveAspectRatio="xMidYMid meet">
<metadata>
Created by potrace 1.11, written by Peter Selinger 2001-2013
</metadata>
<g transform="translate(0.000000,267.000000) scale(0.100000,-0.100000)"
fill="#000000" stroke="none">
<path d="M1119 2646 c-2 -2 -35 -6 -74 -9 -360 -31 -716 -143 -940 -295 -49
-34 -71 -56 -77 -77 -10 -35 -14 -283 -5 -335 3 -19 9 -57 12 -85 8 -60 57
-260 80 -330 216 -646 677 -1239 1131 -1457 l85 -41 57 23 c31 13 97 48 145
78 428 263 833 819 1021 1400 19 60 38 124 41 142 3 18 8 37 11 41 22 35 49
271 48 415 -2 161 -3 164 -89 224 -155 107 -436 217 -650 255 -16 2 -41 7 -55
10 -14 3 -59 10 -100 16 -41 5 -88 12 -105 15 -34 6 -530 16 -536 10z"/>
</g>
</svg>
